# xmcd
#
# Track frame offsets:
#	150
#	18326
#	27617
#	36347
#	47888
#	59123
#	69400
#	84333
#
# Disc length: 1330 seconds
#
# Revision: 1
# Processed by: cddbd v1.5.2PL0 Copyright (c) Steve Scherf et al.
# Submitted via: audiograbber 1.81.03
#
DISCID=6d053008
DTITLE=Dolly Parton - Sha-Kon-O-Hey! - Land of Blue Smoke
DYEAR=2009
DGENRE=
TTITLE0=My Mountain, My Home
TTITLE1=Hey Howdy Hey
TTITLE2=Working On a Dream
TTITLE3=Time Flies
TTITLE4=Heart Of The Smokies
TTITLE5=Good Time
TTITLE6=Sha-Kon-O-Hey!
TTITLE7=Forever Home
EXTD=Great Smokey Mountains National Park 75th Anniverssary Honorary Ambassador
EXTD=Commemorative Edition
EXTT0=
EXTT1=
EXTT2=
EXTT3=
EXTT4=
EXTT5=
EXTT6=
EXTT7=
PLAYORDER=
